<svg xmlns="http://www.w3.org/2000/svg" xmlns:xlink="http://www.w3.org/1999/xlink" xmlns:fi="http://pattern.flaticon.com/" x="0" y="0" width="1400" height="700" viewBox="0 0 1400 700"><rect x="0px" y="0px" width="100%" height="100%" opacity="1" fill="#ffffff"/><defs><g transform="matrix(0.1171872690320015 0 0 0.1171872690320015 180 137.0000085830518)" id="L1_3"><path d="M282.367,307.035c-0.712-1.25-1.711-2.311-2.922-3.086l-45.069-28.897  c-3.143-2.008-7.215-1.827-10.168,0.448l-49.785,38.553c-3.789,2.707-7.642,5.345-11.561,8.025  c-14.548,9.956-29.594,20.258-45.384,36.5c-18.974,19.525-28.19,40.707-27.383,62.965c1.25,34.543,26.229,61.759,41.008,74.905  c4.884,4.345,11.207,6.724,17.681,6.724c0.914,0,1.832-0.052,2.75-0.147c7.552-0.793,14.496-4.785,19.043-10.948  c8.832-11.975,24.099-28.965,46.693-41.949C316.755,392.993,295.936,331.027,282.367,307.035z" fill="#ffbed2"/><path d="M151.535,503.027c7.552-0.793,14.496-4.785,19.043-10.948c8.832-11.975,24.099-28.965,46.693-41.949  c99.482-57.138,78.664-119.103,65.094-143.095c-0.712-1.25-1.711-2.311-2.922-3.086l-42.575-27.298  c-30.766,25.86-51.394,76.453-51.394,120.591c0,44.268-17.655,114.758-54.37,99.206c4.884,4.345,11.207,6.724,17.681,6.724  C149.699,503.173,150.617,503.122,151.535,503.027z" fill="#ff96aa"/><path d="M444.918,430.148c-8.025-12.534-18.435-32.871-22.474-58.612  c-14.819-94.483-69.551-120.741-115.797-113.784c-1.845,0.276-3.552,1.129-4.879,2.44l-34.207,33.655  c-2.207,2.173-3.116,5.336-2.397,8.353l12.418,51.801c0.039,0.156,0.082,0.31,0.125,0.457c2.138,7.181,3.866,14.413,5.694,22.069  c4.099,17.155,8.337,34.888,17.863,55.448c11.439,24.707,27.923,40.888,48.991,48.095c8.771,3.009,17.664,4.224,26.315,4.224  c23.608,0,45.448-9.06,58.306-15.724c6.621-3.423,11.526-9.526,13.457-16.724C450.297,444.509,449.052,436.596,444.918,430.148z" fill="#ffbed2"/><path d="M422.444,371.536c-14.819-94.483-69.551-120.741-115.797-113.784  c-1.845,0.276-3.552,1.129-4.879,2.44l-32.876,32.345c13.067,37.845,52.338,75.176,93.154,91.22  c39.353,15.469,95.022,54.675,75.616,82.979c5.16-3.562,9.031-8.776,10.67-14.89c1.965-7.336,0.719-15.25-3.414-21.698  C436.893,417.613,426.483,397.277,422.444,371.536z" fill="#ff96aa"/><path d="M478.948,156.017c-14.593,2.926-37.321,5.241-62.772-0.342  c-93.414-20.5-137.755,20.963-148.065,66.579c-0.413,1.82-0.237,3.72,0.501,5.432l18.937,44.093c1.223,2.845,3.84,4.841,6.913,5.266  l52.776,7.239c0.159,0.02,0.319,0.036,0.471,0.05c7.467,0.616,14.834,1.631,22.631,2.708c17.473,2.41,35.533,4.9,58.149,3.49  c27.175-1.688,48.236-11.17,62.601-28.184c5.988-7.081,10.349-14.924,13.491-22.985c8.572-21.996,8.061-45.636,6.52-60.036  c-0.785-7.412-4.691-14.198-10.697-18.611C494.283,156.218,486.457,154.506,478.948,156.017z" fill="#ffbed2"/><path d="M416.177,155.674c-93.414-20.5-137.755,20.963-148.065,66.579c-0.413,1.82-0.237,3.72,0.501,5.432  l18.201,42.377c40.007,1.567,89.049-21.469,118.818-53.674c28.703-31.051,85.445-68.685,104.772-40.325  c-1.445-6.101-4.897-11.601-9.998-15.349c-6.122-4.495-13.948-6.208-21.457-4.697C464.355,158.943,441.628,161.258,416.177,155.674z  " fill="#ff96aa"/><path d="M216.167,34.01c-1.042,14.847-4.829,37.377-16.952,60.44  c-44.504,84.652-16.264,138.389,24.994,160.409c1.645,0.879,3.523,1.214,5.37,0.954l47.533-6.585  c3.068-0.426,5.685-2.421,6.909-5.272l20.956-48.974c0.062-0.148,0.119-0.298,0.172-0.441c2.571-7.038,5.501-13.873,8.604-21.106  c6.951-16.211,14.135-32.968,18.764-55.149c5.568-26.652,2.002-49.472-10.601-67.83c-5.242-7.649-11.651-13.932-18.592-19.095  c-18.942-14.091-41.872-19.858-56.167-22.185c-7.354-1.206-14.933,0.764-20.779,5.386C220.424,19.276,216.7,26.369,216.167,34.01z" fill="#ffbed2"/><path d="M199.216,94.451c-44.504,84.652-16.264,138.389,24.994,160.409c1.645,0.879,3.523,1.214,5.37,0.954  l45.684-6.329c12.105-38.164,2.879-91.555-20.295-128.79c-22.341-35.9-43.606-100.584-11.141-111.71  c-6.266-0.222-12.483,1.651-17.449,5.577c-5.955,4.713-9.679,11.806-10.212,19.447C215.125,48.858,211.34,71.387,199.216,94.451z" fill="#ff96aa"/><path d="M229.581,255.814c-1.847,0.259-3.726-0.075-5.372-0.954c-22.313-11.909-40.698-33.177-45.95-63.512  c-0.786-0.542-1.545-1.053-2.34-1.602c-14.51-10.027-29.509-20.393-50.333-29.328c-25.017-10.743-48.091-11.774-68.585-3.062  c-8.537,3.622-15.967,8.657-22.403,14.436c-17.567,15.77-27.767,37.102-32.884,50.65c-2.641,6.969-2.214,14.788,1.159,21.434  c3.438,6.772,9.652,11.829,17.035,13.866c14.345,3.966,35.677,12.145,55.879,28.601c74.144,60.409,132.414,43.385,162.18,7.315  c1.188-1.438,1.888-3.213,2.001-5.075l2.141-34.506L229.581,255.814z" fill="#ffbed2"/><path d="M229.581,255.814c-1.847,0.259-3.726-0.075-5.372-0.954c-11.889-6.345-22.613-15.412-30.911-27.006  c-27.009-3.105-56.181-0.11-80.73,9.047C72.951,251.68,5.335,259.694,0.868,225.667c-1.461,6.098-0.858,12.563,2.006,18.208  c3.438,6.772,9.652,11.829,17.035,13.866c14.345,3.966,35.677,12.145,55.879,28.601c74.144,60.409,132.414,43.385,162.18,7.315  c1.188-1.438,1.888-3.213,2.001-5.075l2.141-34.506L229.581,255.814z" fill="#ff96aa"/><path d="M361.28,235.415c-23.182-7.037-45.355-6.551-66.051,1.277c11.69-14.146,32.08-28.711,51.742-32.13  c4.802-0.836,8.022-5.405,7.186-10.216c-0.836-4.793-5.379-8-10.211-7.181c-27.879,4.853-54.214,25.775-67.032,44.584  c-3.262-1.184-6.725-1.896-10.354-2.066c-0.999-23.664-0.332-34.563,17.511-53.708c3.324-3.561,3.129-9.146-0.436-12.474  c-3.564-3.319-9.155-3.147-12.479,0.439c-21.007,22.536-23.129,38.292-22.42,61.565c-12.871-17.743-17.253-36.512-13.214-57.195  c0.936-4.785-2.185-9.422-6.969-10.354c-4.836-0.948-9.422,2.189-10.358,6.974c-5.474,28.007,1.265,53.033,20.481,76.479  c-2.321,2.599-4.286,5.501-5.761,8.703c-19.033-0.551-45.262-11.847-62.935-24.716c-3.932-2.854-9.457-1.992-12.332,1.94  c-2.867,3.948-2.001,9.465,1.944,12.337c17.973,13.086,43.239,24.65,65.236,27.495c-16.968,7.562-41.069,10.722-59.515,9.583  c-4.897-0.207-9.043,3.414-9.336,8.285c-0.294,4.862,3.418,9.043,8.285,9.336c2.797,0.172,5.711,0.25,8.715,0.25  c19.903,0,43.482-3.789,61.396-12.394c2.007,3.517,4.57,6.621,7.618,9.247c-0.11,0.179-0.286,0.286-0.385,0.474  c-9.457,18.035-28.737,36.069-43.651,45.931c-4.065,2.69-5.181,8.163-2.492,12.233c1.698,2.569,4.509,3.957,7.371,3.957  c1.673,0,3.362-0.474,4.862-1.465c18.634-12.326,36.313-30.45,46.602-47.401c0.728,20.941-2.422,40.775-8.942,55.28  c-2.001,4.448-0.013,9.673,4.431,11.672c1.176,0.526,2.406,0.776,3.616,0.776c3.367,0,6.586-1.94,8.056-5.207  c10.904-24.266,11.25-52.078,10.238-68.269c5.005-0.974,9.599-3.027,13.607-5.874c9.783,14.495,21.012,35.585,21.746,57.065  c0.163,4.767,4.082,8.526,8.819,8.526c0.099,0,0.203,0,0.306-0.009c4.871-0.163,8.685-4.25,8.522-9.121  c-0.846-24.738-12.779-48.167-23.593-64.569c18.786,4.724,33.507,22.972,44.404,38.974c1.711,2.508,4.483,3.862,7.306,3.862  c1.711,0,3.439-0.491,4.961-1.535c4.03-2.741,5.069-8.233,2.327-12.258c-13.656-20.056-32.812-43.212-60.111-47.258  c0.056-0.819,0.245-1.598,0.245-2.431c0-3.645-0.712-7.092-1.737-10.4c17.832-7.554,37.209-8.329,57.655-2.118  c4.681,1.422,9.603-1.216,11.012-5.888C368.578,241.76,365.944,236.828,361.28,235.415z" fill="#ffd7e9"/><circle cx="264" cy="264" r="35" fill="#ffda90"/><circle cx="264" cy="264" r="17" fill="#ffeb78"/></g><g transform="matrix(0.1171875 0 0 0.1171875 88 49.000003705024824)" id="L1_7"><path d="M458.263,212.039c-40.596-17.425-113.079-11.484-160.681,2.94c-2.565,0.776-4.638,2.682-5.638,5.174  l-17.657,44.144c-1.022,2.56-0.789,5.457,0.633,7.829l55.033,91.546c0.396,0.664,0.884,1.267,1.445,1.811  c16.394,15.778,32.12,26.97,46.747,33.246c10.83,4.647,22.154,6.846,33.44,6.846c37.454,0,74.467-24.245,91.438-63.784  C525.108,290.316,505.033,232.11,458.263,212.039z" fill="#f8ebc8"/><path d="M289.19,261.83c-1.677-1.957-4.125-3.087-6.703-3.087h-44.144c-2.901,0-5.613,1.423-7.264,3.811  l-62.508,90.425c-0.388,0.561-0.712,1.173-0.961,1.811c-8.751,22.451-13.187,42.255-13.187,58.852  c0,50.894,45.566,92.305,101.578,92.305s101.578-41.41,101.578-92.305C357.578,370.551,322.216,300.352,289.19,261.83z" fill="#fff5dc"/><path d="M246.84,274.003l-14.631-51.921c-0.918-3.268-3.63-5.717-6.97-6.303l-81.959-14.364  c-0.345-0.061-0.694-0.095-1.043-0.113l-2.91-0.156c-36.077-1.647-64.875,2.001-85.589,10.889  C6.968,232.109-13.108,290.314,8.976,341.786c16.972,39.548,53.981,63.784,91.438,63.784c11.286,0,22.615-2.198,33.444-6.846  c42.428-18.218,90.291-80.476,112.109-117.877C247.176,278.78,247.491,276.314,246.84,274.003z" fill="#f8ebc8"/><g><path d="M468.028,98.756c-3.401-25.521-16.576-49.214-37.095-66.69   C388.294-4.266,326.764-2.301,293.756,36.455c-27.771,32.599-46.428,104.729-46.428,151.658c0,2.612,1.16,5.095,3.168,6.777   l52.817,44.144c1.612,1.345,3.621,2.052,5.66,2.052c1.047,0,2.103-0.19,3.117-0.569l59.271-22.365   c24.546-10.355,57.839-27.426,77.036-49.955C464.498,149.298,471.472,124.639,468.028,98.756z" fill="#fff5dc"/><path d="M215.573,36.455c-33.013-38.746-94.56-40.72-137.177-4.388C57.875,49.544,44.702,73.237,41.3,98.758   c-3.444,25.883,3.526,50.541,19.627,69.44c27.615,32.418,88.369,57.43,136.026,70.035c2.431,0.638,4.819,1.25,7.148,1.828   c0.703,0.172,1.418,0.258,2.13,0.258c1.785,0,3.544-0.543,5.036-1.578l49.77-34.548c2.375-1.647,3.794-4.354,3.794-7.251   C264.829,150.435,242.857,68.477,215.573,36.455z" fill="#fff5dc"/></g><path d="M363.398,250.034l-55.568-9.264c-1.854-5.718-5.981-10.667-11.922-13.214l-3.599-1.544l1.655-1.822  c2.593-2.844,4.253-6.274,5.049-9.936l51.18-46.066l-11.812-13.123l-44.545,40.095c-0.447-0.486-0.832-1.014-1.328-1.463  c-0.122-0.11-0.27-0.18-0.395-0.287l26.553-48.677l-15.502-8.449l-28.607,52.444c-4.716,0.735-9.206,2.837-12.477,6.443l-6.08,6.687  l-6.074-6.682c-3.304-3.639-7.77-5.933-12.568-6.704l-26.579-48.726l-15.502,8.449l24.646,45.181c-0.14,0.12-0.302,0.206-0.44,0.33  c-0.491,0.446-0.874,0.971-1.318,1.453l-44.545-40.093l-11.814,13.123l51.179,46.065c0.793,3.662,2.45,7.087,5.031,9.919  l1.674,1.841l-3.599,1.544c-5.941,2.548-10.069,7.497-11.922,13.214l-55.568,9.264l2.906,17.416l54.32-9.056l-51.172,27.911  l8.458,15.502l60.466-32.981c3.221,0.153,6.455-0.338,9.495-1.642l1.367-0.584v2.314c0,5.143,1.886,9.808,4.904,13.518  l-9.728,63.251l17.451,2.691l8.906-57.904c0.009,0,0.017,0.002,0.025,0.002c0.023,0,0.045-0.007,0.07-0.007l8.863,57.9l17.45-2.673  l-9.691-63.306c2.995-3.703,4.867-8.35,4.867-13.473v-2.314l1.359,0.579c3.056,1.313,6.294,1.804,9.514,1.65l60.457,32.978  l8.458-15.502l-51.167-27.911l54.314,9.055L363.398,250.034z" fill="#f5e196"/><path d="M233.964,188.113c6.065,0,11.885,2.574,15.961,7.062l6.074,6.682l6.08-6.687  c7.666-8.449,21.943-9.149,30.429-1.474c4.28,3.886,6.784,9.191,7.057,14.95c0.274,5.764-1.716,11.282-5.602,15.544l-1.655,1.822  l3.599,1.544c10.911,4.679,15.998,17.366,11.333,28.287c-2.277,5.309-6.464,9.399-11.802,11.537  c-5.342,2.147-11.212,2.082-16.522-0.2l-1.359-0.579v2.314c0,11.885-9.673,21.559-21.559,21.559  c-11.885,0-21.559-9.673-21.559-21.559v-2.314l-1.368,0.584c-5.273,2.263-11.134,2.342-16.481,0.209  c-5.351-2.138-9.553-6.232-11.825-11.533l-0.009-0.019c-4.665-10.92,0.422-23.608,11.333-28.287l3.599-1.544l-1.674-1.841  c-3.867-4.243-5.857-9.761-5.583-15.525c0.274-5.76,2.778-11.065,7.049-14.94C223.471,190.097,228.608,188.113,233.964,188.113z   M246.137,198.63c-0.009-0.009-0.019-0.019-0.028-0.028L246.137,198.63z M265.85,198.649l0.023-0.028  C265.863,198.63,265.859,198.639,265.85,198.649z M218.082,232.282l0.051-0.023C218.114,232.268,218.101,232.273,218.082,232.282z" fill="#c3eb6e"/><g><circle cx="150" cy="258" r="13" fill="#735a4b"/><circle cx="158" cy="294" r="13" fill="#735a4b"/><circle cx="238" cy="347" r="13" fill="#735a4b"/><circle cx="273" cy="347" r="13" fill="#735a4b"/><circle cx="361" cy="258" r="13" fill="#735a4b"/><circle cx="353" cy="294" r="13" fill="#735a4b"/><circle cx="308" cy="143" r="13" fill="#735a4b"/><circle cx="344" cy="161" r="13" fill="#735a4b"/><circle cx="203" cy="143" r="13" fill="#735a4b"/><circle cx="167" cy="161" r="13" fill="#735a4b"/></g><path d="M267.588,232.624c-0.03,0-0.056,0.009-0.086,0.009c1.077-1.915,1.741-4.093,1.741-6.446  c0-7.313-5.93-13.243-13.243-13.243c-7.314,0-13.243,5.93-13.243,13.243c0,2.361,0.669,4.546,1.751,6.465  c-7.185,0.148-12.972,5.995-12.972,13.216c0,7.313,5.93,13.243,13.243,13.243c4.888,0,9.109-2.677,11.403-6.617  c2.295,3.939,6.516,6.617,11.403,6.617c7.314,0,13.243-5.93,13.243-13.243C280.831,238.554,274.902,232.624,267.588,232.624z" fill="#ff6991"/></g><g transform="matrix(0.11718795448541641 0 0 0.11718795448541641 287 47.00000331879937)" id="L1_10"><path d="M63.633,347.427c27.612-32.409,88.358-57.422,136.009-70.026c2.44-0.647,4.841-1.255,7.177-1.827  c3.319-0.806,6.784,0.353,8.943,2.996l47.082,57.768c1.513,1.863,2.207,4.254,1.918,6.638  c-2.698,22.306-14.022,98.047-46.505,136.177c-17.198,20.19-42.142,30.392-68.129,30.392c-23.871,0-48.62-8.612-69.031-25.999  c-20.518-17.483-33.689-41.164-37.09-66.69C40.564,390.983,47.534,366.323,63.633,347.427z" fill="#fff2dc"/><path d="M137.672,115.858c38.45,18.286,78.328,70.492,102.831,113.259c1.256,2.189,2.464,4.351,3.623,6.46  c1.638,2.997,1.414,6.645-0.579,9.415l-43.618,60.425c-1.407,1.943-3.539,3.232-5.916,3.571  c-22.244,3.165-98.337,11.825-143.572-9.687c-23.951-11.389-40.262-32.844-46.985-57.945c-6.176-23.058-4.262-49.193,7.254-73.407  c11.578-24.342,31.046-43.193,54.823-53.082C89.63,104.845,115.253,105.197,137.672,115.858z" fill="#ffebd7"/><g><path d="M255.999,1.679c-56.004,0-101.565,41.401-101.565,92.289c0,42.508,29.961,100.879,57.999,141.327   c1.646,2.379,4.358,3.797,7.254,3.797h72.621c2.897,0,5.608-1.418,7.254-3.797c28.039-40.448,57.999-98.819,57.999-141.327   C357.564,43.08,312.003,1.679,255.999,1.679z" fill="#fff7eb"/><path d="M451.047,348.201c-27.612-32.409-88.358-57.422-136.009-70.026c-2.44-0.647-4.841-1.255-7.177-1.827   c-3.319-0.806-6.784,0.353-8.943,2.996l-47.082,57.768c-1.513,1.863-2.207,4.254-1.918,6.638   c2.698,22.306,14.022,98.047,46.505,136.177c17.198,20.19,42.142,30.392,68.129,30.392c23.871,0,48.621-8.612,69.031-26.001   c20.518-17.483,33.689-41.164,37.09-66.69C474.115,391.757,467.146,367.098,451.047,348.201z" fill="#fff7eb"/></g><path d="M374.326,115.858c-38.45,18.286-78.328,70.492-102.831,113.259c-1.256,2.189-2.464,4.351-3.623,6.46  c-1.638,2.997-1.414,6.645,0.579,9.415l43.618,60.425c1.407,1.943,3.539,3.232,5.916,3.571  c22.244,3.165,98.337,11.825,143.572-9.687c23.951-11.389,40.262-32.844,46.985-57.945c6.176-23.058,4.262-49.193-7.254-73.407  c-11.578-24.342-31.046-43.193-54.823-53.082C422.368,104.845,396.745,105.197,374.326,115.858z" fill="#fff2dc"/><path d="M290.334,356.379c-10.955,0-21.465-4.648-28.838-12.747l-5.497-6.048l-5.482,6.034  c-7.386,8.114-17.897,12.761-28.852,12.761c-9.73,0-19.054-3.608-26.25-10.164c-14.973-13.625-16.867-36.38-4.906-52.26  c-8.958-4.174-15.925-11.517-19.645-20.787c-3.886-9.671-3.764-20.279,0.337-29.863c4.125-9.618,11.726-17.023,21.417-20.879  c7.943-3.164,16.505-3.637,24.605-1.42c2.046-19.591,18.654-34.915,38.777-34.915c20.124,0,36.732,15.325,38.777,34.911  c8.094-2.207,16.672-1.742,24.629,1.436c9.681,3.862,17.272,11.263,21.383,20.841l0.01,0.03c4.1,9.583,4.223,20.192,0.337,29.863  c-3.71,9.251-10.663,16.589-19.65,20.787c11.96,15.901,10.061,38.641-4.911,52.27C309.387,352.772,300.063,356.379,290.334,356.379z   M194.838,287.144c0.049,0.02,0.093,0.039,0.141,0.059L194.838,287.144z M317.208,287.12l-0.078,0.034  C317.16,287.144,317.184,287.134,317.208,287.12z" fill="#ffcaff"/><path d="M278.62,325.662c-6.227,0-12.201-2.642-16.385-7.25l-6.236-6.86l-6.241,6.865  c-7.869,8.673-22.526,9.391-31.236,1.514c-4.394-3.989-6.964-9.434-7.245-15.347c-0.281-5.917,1.761-11.582,5.75-15.956l1.699-1.87  l-3.694-1.586c-11.201-4.803-16.423-17.827-11.634-29.037c2.337-5.45,6.636-9.649,12.115-11.843  c5.484-2.204,11.51-2.137,16.961,0.205l1.395,0.595v-2.376c0-12.201,9.93-22.131,22.131-22.131s22.131,9.93,22.131,22.131v2.376  l1.405-0.6c5.412-2.323,11.43-2.404,16.918-0.214c5.493,2.195,9.806,6.398,12.139,11.839l0.01,0.019  c4.789,11.21-0.434,24.234-11.634,29.037l-3.694,1.586l1.718,1.89c3.97,4.355,6.013,10.02,5.731,15.937  c-0.281,5.912-2.851,11.358-7.235,15.338C289.392,323.624,284.118,325.662,278.62,325.662z M266.124,314.866  c0.01,0.01,0.019,0.019,0.029,0.029L266.124,314.866z M245.888,314.846l-0.024,0.029  C245.874,314.866,245.878,314.856,245.888,314.846z M294.923,280.321l-0.052,0.024C294.89,280.335,294.904,280.331,294.923,280.321z  " fill="#b9e196"/><path d="M367.667,240.727 360.71,224.503 264.827,265.595 264.827,158.425 247.171,158.425   247.171,265.595 151.287,224.503 144.331,240.727 241.131,282.212 173.593,356.503 186.654,368.382 255.999,292.104   325.344,368.382 338.405,356.503 270.867,282.212z" fill="#ff8cff"/><g><circle cx="255" cy="143" r="18" fill="#ffbe64"/><circle cx="140" cy="230" r="18" fill="#ffbe64"/><circle cx="371" cy="230" r="18" fill="#ffbe64"/><circle cx="336" cy="371" r="18" fill="#ffbe64"/><circle cx="175" cy="371" r="18" fill="#ffbe64"/></g></g><g transform="matrix(0.11718795448541641 0 0 0.11718795448541641 286 232.00000331879937)" id="L1_11"><path d="M511.938,253.257c-0.875-9.176-10.603-11.19-24.068-13.973c-1.551-0.319-3.453-0.712-5.37-1.138  c1.074-0.681,2.121-1.336,3.052-1.922c12.029-7.53,21.529-13.478,19.154-22.925c-2.263-9.008-12.357-9.741-26.33-10.754  c-1.224-0.086-2.668-0.194-4.163-0.314c0.94-0.746,1.845-1.452,2.629-2.064c10.982-8.577,19.658-15.353,16.456-24.348  c-3.202-9.008-14.232-8.802-28.141-8.495c-0.991,0.018-2.134,0.043-3.332,0.061c1.081-1.038,2.134-2.03,3.026-2.871  c10.198-9.612,17.568-16.555,13.637-24.969c-4.12-8.814-15.224-7.423-29.322-5.677c-1.081,0.138-2.302,0.289-3.556,0.439  c1.216-1.535,2.431-3.025,3.43-4.25c8.689-10.659,14.973-18.362,9.853-26.025c-5.94-8.9-17.865-4.728-31.671,0.108  c-2.319,0.81-5.34,1.866-7.789,2.612c-0.504-2.629-0.805-6.155-0.384-9.069c0.552-3.767-1.375-7.461-4.775-9.168  c-3.409-1.711-7.525-1.038-10.202,1.655l-92.071,92.185L367.41,65.994c1.522-3.194,0.988-6.991-1.357-9.641  c-2.34-2.65-6.047-3.642-9.404-2.526c-4.672,1.56-7.848,2.41-9.987,2.867c-0.104-2.483-0.116-5.478-0.125-7.801  c-0.069-14.642-0.125-27.284-10.491-29.891c-8.983-2.28-14.107,6.236-21.24,17.995c-0.823,1.357-1.827,3.012-2.871,4.676  c-0.28-1.241-0.547-2.448-0.789-3.521c-3.064-13.858-5.483-24.801-15.181-25.727c-9.293-0.943-13.318,8.384-18.952,21.211  c-0.495,1.125-1.078,2.453-1.694,3.823c-0.388-1.142-0.755-2.232-1.069-3.181c-4.4-13.219-7.879-23.658-17.426-23.658  c-9.551,0-13.026,10.444-17.426,23.662c-0.314,0.943-0.681,2.035-1.065,3.172c-0.617-1.37-1.198-2.693-1.694-3.819  c-5.637-12.827-9.728-22.158-18.952-21.211c-9.693,0.931-12.112,11.87-15.167,25.722c-0.237,1.069-0.504,2.272-0.785,3.5  c-1.038-1.655-2.039-3.306-2.858-4.655c-7.129-11.758-12.258-20.236-21.218-18.003c-10.37,2.607-10.435,15.245-10.508,29.878  c-0.013,2.457-0.03,5.655-0.147,8.215c-2.646-0.409-6.064-1.302-8.667-2.681c-3.366-1.78-7.491-1.203-10.236,1.427  c-2.75,2.634-3.5,6.733-1.863,10.168l56.914,119.525l-95.231-95.351c-2.69-2.693-6.806-3.358-10.206-1.651  c-3.401,1.707-5.327,5.404-4.771,9.168c0.436,2.962,0.116,6.555-0.31,9.085c-2.465-0.75-5.517-1.818-7.857-2.634  c-13.806-4.827-25.727-9.004-31.675-0.108c-5.112,7.667,1.164,15.366,9.853,26.02c1,1.224,2.216,2.72,3.43,4.254  c-1.255-0.151-2.469-0.301-3.556-0.439c-14.073-1.754-25.193-3.147-29.322,5.68c-3.927,8.413,3.439,15.353,13.637,24.964  c0.893,0.841,1.944,1.832,3.03,2.871c-1.198-0.018-2.345-0.043-3.336-0.061c-13.908-0.285-24.939-0.504-28.141,8.495  c-3.198,8.999,5.478,15.771,16.46,24.348c0.785,0.612,1.685,1.319,2.629,2.064c-1.5,0.12-2.939,0.224-4.168,0.314  c-13.973,1.013-24.067,1.746-26.33,10.754c-2.375,9.448,7.125,15.396,19.154,22.925c0.931,0.586,1.978,1.241,3.052,1.922  c-1.918,0.427-3.819,0.819-5.37,1.138c-13.465,2.784-23.193,4.798-24.067,13.978c-1.009,10.646,10.878,14.93,24.645,19.895  c2.189,0.793,5.008,1.811,7.314,2.736c-1.146,1.863-3.012,4.574-6.047,8.452c-2.177,2.788-2.483,6.607-0.767,9.707  c1.565,2.831,4.534,4.556,7.719,4.556c0.301,0,0.608-0.018,0.909-0.047l142.496-14.703L54.305,354.213  c-3.297,1.901-5.004,5.702-4.237,9.426c0.767,3.728,3.84,6.543,7.62,6.987c2.974,0.349,6.367,1.587,8.698,2.65  c-1.362,2.185-3.181,4.862-4.577,6.909c-8.241,12.09-15.357,22.534-8.305,30.563c6.086,6.935,15.142,2.849,27.689-2.781  c1.444-0.647,3.202-1.436,4.999-2.211c-0.47,1.173-0.931,2.311-1.345,3.323c-5.34,13.141-9.56,23.52-2.107,29.787  c7.12,5.974,15.732,0.66,27.65-6.715c1.043-0.642,2.272-1.401,3.556-2.177c-0.328,1.155-0.647,2.259-0.927,3.215  c-3.875,13.383-6.935,23.951,0.927,29.374c7.879,5.413,16.659-1.207,27.779-9.598c0.793-0.599,1.711-1.289,2.677-2.008  c-0.271,1.479-0.543,2.896-0.771,4.104c-2.638,13.763-4.543,23.705,3.573,28.223c8.483,4.724,16.707-2.896,27.094-12.569  c0.805-0.75,1.711-1.594,2.65-2.453c-0.086,1.961-0.199,3.896-0.289,5.483c-0.798,13.724-1.37,23.641,7.271,26.861  c1.413,0.526,2.767,0.771,4.081,0.771c8,0,14.34-9.107,21.516-19.425c1.332-1.909,3.043-4.371,4.534-6.358  c1.5,1.59,3.633,4.09,6.598,8.025c2.134,2.824,5.741,4.099,9.18,3.258c3.435-0.853,6.026-3.677,6.586-7.172l20.398-127.27  l20.402,127.27c0.561,3.496,3.155,6.319,6.586,7.172c3.43,0.841,7.047-0.436,9.18-3.258c2.961-3.931,5.094-6.435,6.598-8.025  c1.492,1.992,3.202,4.448,4.534,6.362c7.176,10.315,13.512,19.422,21.512,19.422c1.314,0,2.672-0.246,4.086-0.771  c8.637-3.22,8.065-13.137,7.271-26.865c-0.09-1.582-0.203-3.518-0.289-5.478c0.936,0.857,1.836,1.698,2.643,2.448  c10.383,9.672,18.577,17.292,27.106,12.573c8.112-4.517,6.207-14.46,3.568-28.218c-0.233-1.207-0.504-2.629-0.771-4.108  c0.965,0.719,1.879,1.409,2.677,2.008c11.124,8.391,19.904,15.021,27.779,9.594c7.862-5.418,4.802-15.99,0.922-29.374  c-0.276-0.957-0.595-2.056-0.922-3.211c1.284,0.776,2.512,1.535,3.556,2.181c11.918,7.366,20.525,12.693,27.641,6.711  c7.461-6.263,3.242-16.646-2.103-29.796c-0.414-1.013-0.875-2.146-1.341-3.315c1.797,0.776,3.556,1.565,4.995,2.211  c12.538,5.63,21.598,9.689,27.693,2.784c7.052-8.034-0.065-18.473-8.301-30.563c-1.384-2.03-3.19-4.676-4.543-6.849  c2.41-1.173,5.732-2.37,8.655-2.715c3.78-0.444,6.853-3.258,7.62-6.987s-0.94-7.525-4.237-9.426l-121.664-70.147l140.485,14.495  c0.301,0.03,0.608,0.047,0.909,0.047c3.185,0,6.155-1.725,7.719-4.556c1.716-3.099,1.409-6.918-0.767-9.707  c-3.034-3.884-4.9-6.591-6.047-8.452c2.306-0.927,5.125-1.944,7.319-2.736C501.06,268.191,512.947,263.907,511.938,253.257z" fill="#fff5dc"/><path d="M418.796,330.835l-81.117-46.77l97.777,10.088c-5.153-5.861-35.936-9.799-37.5-17.067  c-1.474-6.851,30.478-20.522,28.446-28.067c-1.86-6.905-37.064-5.386-39.37-12.725c-2.174-6.917,27.985-24.564,25.432-31.746  c-2.553-7.18-37.083-1.826-39.763-8.561c-2.845-7.148,25.419-28.192,22.503-34.721c-3.182-7.125-36.59,2.45-39.767-3.788  c-3.382-6.639,18.166-29.242,18.335-36.969l-61.769,61.846l36.607-76.878c-7.61,5.287-20.595,29.805-27.61,28.899  c-7.025-0.907-9.225-35.591-17.1-36.205c-7.206-0.562-17.682,33.118-25.453,32.833c-7.324-0.269-13.919-34.597-21.625-34.597  c-7.703,0-14.298,34.328-21.619,34.597c-7.771,0.286-18.245-33.394-25.451-32.834c-7.864,0.612-10.057,35.297-17.074,36.201  c-7.033,0.906-20.067-23.774-27.662-28.953l38.141,80.1l-62.09-62.168c5.147,10.138,19.006,26.616,16.169,32.239  c-3.251,6.444-36.681-3.066-39.946,4.29c-2.991,6.741,25.162,28.094,22.236,35.47c-2.756,6.95-37.354,1.791-39.988,9.197  c-2.634,7.408,27.456,25.25,25.206,32.382c-2.388,7.568-37.702,6.358-39.637,13.475c-2.114,7.777,29.815,21.512,28.267,28.57  c-1.344,6.133-22.338,10.164-32.775,14.761l95.733-9.878l-69.272,39.941c8.836-2.627,17.416-4.855,20.434-2.192  c5.685,5.016-12.057,34.911-5.456,40.203c6.048,4.848,34.411-16.508,41.114-11.543c6.316,4.678-7.336,36.96-0.531,41.65  c6.807,4.691,32.112-19.561,38.736-15.324c7.028,4.496-2.828,38.606,3.857,42.53c7.304,4.289,28.93-22.933,35.65-19.402  c3.544,1.863,4.533,10.583,5.228,19.718l10.738-67.002l12.975,80.94c1.765-11.238,0.195-32.688,5.787-35.582  c6.414-3.319,27.944,23.968,34.905,19.915c6.371-3.709-3.941-37.504,2.749-41.767c6.305-4.017,31.322,20.433,37.794,15.974  c6.47-4.459-7.47-36.542-1.473-41.001c6.366-4.732,34.271,16.939,40.006,12.306c6.257-5.056-11.58-34.885-6.201-39.69  C388.078,319.322,407.695,328.526,418.796,330.835z" fill="#e66eaf"/><path d="M255.865,187.781c-1.138,0-2.272,0.353-3.237,1.056l-64.117,46.584  c-1.94,1.409-2.745,3.887-2.004,6.168l24.49,75.363v0.004c0.741,2.28,2.849,3.81,5.246,3.81h79.246c2.397,0,4.504-1.535,5.246-3.814  l24.485-75.367c0.741-2.28-0.061-4.755-2-6.164l-64.113-46.58C258.136,188.134,256.998,187.781,255.865,187.781z" fill="#ffe1e1"/><path d="M256.861,213.37c-0.747,0-1.492,0.232-2.125,0.693l-42.103,30.589  c-1.273,0.926-1.803,2.553-1.316,4.051l16.082,49.487v0.003c0.487,1.497,1.87,2.503,3.445,2.503h52.037  c1.573,0,2.957-1.007,3.445-2.505l16.079-49.491c0.487-1.497-0.04-3.122-1.313-4.047l-42.1-30.587  C258.352,213.602,257.605,213.37,256.861,213.37z" fill="#e66eaf"/><path d="M368.067,226.581c-1.362-4.681-6.258-7.375-10.935-6.021l-18.658,5.408  c-1.361-1.804-2.977-3.448-4.879-4.83l-64.11-46.58c-1.216-0.883-2.506-1.59-3.828-2.21l-0.004-18.198  c0-4.875-3.952-8.823-8.832-8.823c-4.875,0-8.823,3.952-8.823,8.832l0.004,17.393c-2.01,0.73-3.959,1.699-5.759,3.007l-64.113,46.58  c-1.737,1.263-3.209,2.763-4.495,4.383l-17.116-4.961c-4.664-1.357-9.577,1.332-10.935,6.021c-1.357,4.681,1.341,9.577,6.021,10.935  l17.171,4.977c0.174,1.523,0.448,3.045,0.936,4.548l24.49,75.363c0.611,1.884,1.501,3.603,2.521,5.218l-10.56,14.725  c-2.84,3.966-1.935,9.478,2.026,12.318c1.56,1.117,3.358,1.655,5.137,1.655c2.75,0,5.456-1.28,7.181-3.681l10.648-14.847  c1.651,0.37,3.338,0.628,5.084,0.628h79.246c2.323,0,4.568-0.378,6.706-1.023l9.681,13.5c1.725,2.405,4.431,3.685,7.181,3.685  c1.78,0,3.577-0.538,5.133-1.655c3.966-2.84,4.87-8.353,2.03-12.314l-10.339-14.417c0.643-1.202,1.212-2.456,1.645-3.789  l24.485-75.363c0.428-1.316,0.707-2.648,0.895-3.982l19.14-5.547C366.726,236.158,369.424,231.262,368.067,226.581z   M318.268,231.824l-52.592,15.242l-0.013-53.462L318.268,231.824z M248.008,192.194l0.013,54.886l-54.012-15.655L248.008,192.194z   M188.673,248.259l53.787,15.589L208.933,310.6L188.673,248.259z M223.367,320.766l33.451-46.645l33.448,46.645H223.367z   M303.389,308.777l-32.215-44.924l51.675-14.978L303.389,308.777z" fill="#c859a0"/><circle cx="256" cy="258" r="22" fill="#fff5dc"/></g><g transform="matrix(0.11718795448541641 0 0 0.11718795448541641 85 228.00000248909953)" id="L1_12"><path d="M63.633,347.427c27.612-32.409,88.358-57.422,136.009-70.026c2.44-0.647,4.841-1.255,7.177-1.827  c3.319-0.806,6.784,0.353,8.943,2.996l47.082,57.768c1.513,1.863,2.207,4.254,1.918,6.638  c-2.698,22.306-14.022,98.047-46.505,136.177c-17.198,20.19-42.142,30.392-68.129,30.392c-23.871,0-48.62-8.612-69.031-25.999  c-20.518-17.483-33.689-41.164-37.09-66.69C40.564,390.983,47.534,366.323,63.633,347.427z" fill="#fff2dc"/><path d="M137.672,115.858c38.45,18.286,78.328,70.492,102.831,113.259c1.256,2.189,2.464,4.351,3.623,6.46  c1.638,2.997,1.414,6.645-0.579,9.415l-43.618,60.425c-1.407,1.943-3.539,3.232-5.916,3.571  c-22.244,3.165-98.337,11.825-143.572-9.687c-23.951-11.389-40.262-32.844-46.985-57.945c-6.176-23.058-4.262-49.193,7.254-73.407  c11.578-24.342,31.046-43.193,54.823-53.082C89.63,104.845,115.253,105.197,137.672,115.858z" fill="#ffebd7"/><g><path d="M255.999,1.679c-56.004,0-101.565,41.401-101.565,92.289c0,42.508,29.961,100.879,57.999,141.327   c1.646,2.379,4.358,3.797,7.254,3.797h72.621c2.897,0,5.608-1.418,7.254-3.797c28.039-40.448,57.999-98.819,57.999-141.327   C357.564,43.08,312.003,1.679,255.999,1.679z" fill="#fff7eb"/><path d="M451.047,348.201c-27.612-32.409-88.358-57.422-136.009-70.026c-2.44-0.647-4.841-1.255-7.177-1.827   c-3.319-0.806-6.784,0.353-8.943,2.996l-47.082,57.768c-1.513,1.863-2.207,4.254-1.918,6.638   c2.698,22.306,14.022,98.047,46.505,136.177c17.198,20.19,42.142,30.392,68.129,30.392c23.871,0,48.621-8.612,69.031-26.001   c20.518-17.483,33.689-41.164,37.09-66.69C474.115,391.757,467.146,367.098,451.047,348.201z" fill="#fff7eb"/></g><path d="M374.326,115.858c-38.45,18.286-78.328,70.492-102.831,113.259c-1.256,2.189-2.464,4.351-3.623,6.46  c-1.638,2.997-1.414,6.645,0.579,9.415l43.618,60.425c1.407,1.943,3.539,3.232,5.916,3.571  c22.244,3.165,98.337,11.825,143.572-9.687c23.951-11.389,40.262-32.844,46.985-57.945c6.176-23.058,4.262-49.193-7.254-73.407  c-11.578-24.342-31.046-43.193-54.823-53.082C422.368,104.845,396.745,105.197,374.326,115.858z" fill="#fff2dc"/><path d="M290.334,356.379c-10.955,0-21.465-4.648-28.838-12.747l-5.497-6.048l-5.482,6.034  c-7.386,8.114-17.897,12.761-28.852,12.761c-9.73,0-19.054-3.608-26.25-10.164c-14.973-13.625-16.867-36.38-4.906-52.26  c-8.958-4.174-15.925-11.517-19.645-20.787c-3.886-9.671-3.764-20.279,0.337-29.863c4.125-9.618,11.726-17.023,21.417-20.879  c7.943-3.164,16.505-3.637,24.605-1.42c2.046-19.591,18.654-34.915,38.777-34.915c20.124,0,36.732,15.325,38.777,34.911  c8.094-2.207,16.672-1.742,24.629,1.436c9.681,3.862,17.272,11.263,21.383,20.841l0.01,0.03c4.1,9.583,4.223,20.192,0.337,29.863  c-3.71,9.251-10.663,16.589-19.65,20.787c11.96,15.901,10.061,38.641-4.911,52.27C309.387,352.772,300.063,356.379,290.334,356.379z   M194.838,287.144c0.049,0.02,0.093,0.039,0.141,0.059L194.838,287.144z M317.208,287.12l-0.078,0.034  C317.16,287.144,317.184,287.134,317.208,287.12z" fill="#ffcaff"/><path d="M278.62,325.662c-6.227,0-12.201-2.642-16.385-7.25l-6.236-6.86l-6.241,6.865  c-7.869,8.673-22.526,9.391-31.236,1.514c-4.394-3.989-6.964-9.434-7.245-15.347c-0.281-5.917,1.761-11.582,5.75-15.956l1.699-1.87  l-3.694-1.586c-11.201-4.803-16.423-17.827-11.634-29.037c2.337-5.45,6.636-9.649,12.115-11.843  c5.484-2.204,11.51-2.137,16.961,0.205l1.395,0.595v-2.376c0-12.201,9.93-22.131,22.131-22.131s22.131,9.93,22.131,22.131v2.376  l1.405-0.6c5.412-2.323,11.43-2.404,16.918-0.214c5.493,2.195,9.806,6.398,12.139,11.839l0.01,0.019  c4.789,11.21-0.434,24.234-11.634,29.037l-3.694,1.586l1.718,1.89c3.97,4.355,6.013,10.02,5.731,15.937  c-0.281,5.912-2.851,11.358-7.235,15.338C289.392,323.624,284.118,325.662,278.62,325.662z M266.124,314.866  c0.01,0.01,0.019,0.019,0.029,0.029L266.124,314.866z M245.888,314.846l-0.024,0.029  C245.874,314.866,245.878,314.856,245.888,314.846z M294.923,280.321l-0.052,0.024C294.89,280.335,294.904,280.331,294.923,280.321z  " fill="#b9e196"/><path d="M367.667,240.727 360.71,224.503 264.827,265.595 264.827,158.425 247.171,158.425   247.171,265.595 151.287,224.503 144.331,240.727 241.131,282.212 173.593,356.503 186.654,368.382 255.999,292.104   325.344,368.382 338.405,356.503 270.867,282.212z" fill="#ff8cff"/><g><circle cx="255" cy="143" r="18" fill="#ffbe64"/><circle cx="140" cy="230" r="18" fill="#ffbe64"/><circle cx="371" cy="230" r="18" fill="#ffbe64"/><circle cx="336" cy="371" r="18" fill="#ffbe64"/><circle cx="175" cy="371" r="18" fill="#ffbe64"/></g></g></defs><g fi:class="KUsePattern"><pattern id="pattern_L1_3" width="350" height="350" patternUnits="userSpaceOnUse"><use xlink:href="#L1_3" x="-350" y="-350"/><use xlink:href="#L1_3" x="0" y="-350"/><use xlink:href="#L1_3" x="350" y="-350"/><use xlink:href="#L1_3" x="-350" y="0"/><use xlink:href="#L1_3" x="0" y="0"/><use xlink:href="#L1_3" x="350" y="0"/><use xlink:href="#L1_3" x="-350" y="350"/><use xlink:href="#L1_3" x="0" y="350"/><use xlink:href="#L1_3" x="350" y="350"/></pattern><rect x="0" y="0" width="100%" height="100%" fill="url(#pattern_L1_3)"/></g><g fi:class="KUsePattern"><pattern id="pattern_L1_7" width="350" height="350" patternUnits="userSpaceOnUse"><use xlink:href="#L1_7" x="-350" y="-350"/><use xlink:href="#L1_7" x="0" y="-350"/><use xlink:href="#L1_7" x="350" y="-350"/><use xlink:href="#L1_7" x="-350" y="0"/><use xlink:href="#L1_7" x="0" y="0"/><use xlink:href="#L1_7" x="350" y="0"/><use xlink:href="#L1_7" x="-350" y="350"/><use xlink:href="#L1_7" x="0" y="350"/><use xlink:href="#L1_7" x="350" y="350"/></pattern><rect x="0" y="0" width="100%" height="100%" fill="url(#pattern_L1_7)"/></g><g fi:class="KUsePattern"><pattern id="pattern_L1_10" width="350" height="350" patternUnits="userSpaceOnUse"><use xlink:href="#L1_10" x="-350" y="-350"/><use xlink:href="#L1_10" x="0" y="-350"/><use xlink:href="#L1_10" x="350" y="-350"/><use xlink:href="#L1_10" x="-350" y="0"/><use xlink:href="#L1_10" x="0" y="0"/><use xlink:href="#L1_10" x="350" y="0"/><use xlink:href="#L1_10" x="-350" y="350"/><use xlink:href="#L1_10" x="0" y="350"/><use xlink:href="#L1_10" x="350" y="350"/></pattern><rect x="0" y="0" width="100%" height="100%" fill="url(#pattern_L1_10)"/></g><g fi:class="KUsePattern"><pattern id="pattern_L1_11" width="350" height="350" patternUnits="userSpaceOnUse"><use xlink:href="#L1_11" x="-350" y="-350"/><use xlink:href="#L1_11" x="0" y="-350"/><use xlink:href="#L1_11" x="350" y="-350"/><use xlink:href="#L1_11" x="-350" y="0"/><use xlink:href="#L1_11" x="0" y="0"/><use xlink:href="#L1_11" x="350" y="0"/><use xlink:href="#L1_11" x="-350" y="350"/><use xlink:href="#L1_11" x="0" y="350"/><use xlink:href="#L1_11" x="350" y="350"/></pattern><rect x="0" y="0" width="100%" height="100%" fill="url(#pattern_L1_11)"/></g><g fi:class="KUsePattern"><pattern id="pattern_L1_12" width="350" height="350" patternUnits="userSpaceOnUse"><use xlink:href="#L1_12" x="-350" y="-350"/><use xlink:href="#L1_12" x="0" y="-350"/><use xlink:href="#L1_12" x="350" y="-350"/><use xlink:href="#L1_12" x="-350" y="0"/><use xlink:href="#L1_12" x="0" y="0"/><use xlink:href="#L1_12" x="350" y="0"/><use xlink:href="#L1_12" x="-350" y="350"/><use xlink:href="#L1_12" x="0" y="350"/><use xlink:href="#L1_12" x="350" y="350"/></pattern><rect x="0" y="0" width="100%" height="100%" fill="url(#pattern_L1_12)"/></g></svg>